<?xml version="1.0" encoding="UTF-8" standalone="no"?>
<!-- Created with Inkscape (http://www.inkscape.org/) -->

<svg
   width="512"
   height="512"
   viewBox="0 0 135.46666 135.46667"
   version="1.1"
   id="svg1"
   inkscape:version="1.3.2 (091e20ef0f, 2023-11-25)"
   sodipodi:docname="icon.svg"
   inkscape:export-filename="icon.png"
   inkscape:export-xdpi="96"
   inkscape:export-ydpi="96"
   xmlns:inkscape="http://www.inkscape.org/namespaces/inkscape"
   xmlns:sodipodi="http://sodipodi.sourceforge.net/DTD/sodipodi-0.dtd"
   xmlns="http://www.w3.org/2000/svg"
   xmlns:svg="http://www.w3.org/2000/svg">
  <sodipodi:namedview
     id="namedview1"
     pagecolor="#000000"
     bordercolor="#000000"
     borderopacity="0.25"
     inkscape:showpageshadow="2"
     inkscape:pageopacity="0.0"
     inkscape:pagecheckerboard="0"
     inkscape:deskcolor="#d1d1d1"
     inkscape:document-units="mm"
     inkscape:zoom="0.5606361"
     inkscape:cx="-54.40249"
     inkscape:cy="17.836882"
     inkscape:window-width="1920"
     inkscape:window-height="1129"
     inkscape:window-x="0"
     inkscape:window-y="0"
     inkscape:window-maximized="1"
     inkscape:current-layer="g2"
     showguides="false"
     showgrid="false"
     inkscape:export-bgcolor="#000000ff">
    <inkscape:grid
       id="grid8"
       units="px"
       originx="0"
       originy="0"
       spacingx="3.175"
       spacingy="3.175"
       empcolor="#0099e5"
       empopacity="0.30196078"
       color="#0099e5"
       opacity="0.14901961"
       empspacing="5"
       dotted="false"
       gridanglex="30"
       gridanglez="30"
       visible="false"
       snapvisiblegridlinesonly="true" />
  </sodipodi:namedview>
  <defs
     id="defs1">
    <marker
       id="Arrow2Sstart"
       inkscape:isstock="true"
       inkscape:stockid="Arrow2Sstart"
       orient="auto"
       refX="0"
       refY="0"
       style="overflow:visible">
      <path
         d="M 8.72,4.03 -2.21,0.02 8.72,-4 c -1.75,2.37 -1.74,5.62 0,8.03 z"
         id="Arrow2SstartPath"
         style="fill:#000000;fill-opacity:1;stroke:none"
         transform="matrix(0.3,0,0,0.3,-0.69,0)" />
    </marker>
    <marker
       id="Arrow2Send"
       inkscape:isstock="true"
       inkscape:stockid="Arrow2Send"
       orient="auto"
       refX="0"
       refY="0"
       style="overflow:visible">
      <path
         d="M 8.72,4.03 -2.21,0.02 8.72,-4 c -1.75,2.37 -1.74,5.62 0,8.03 z"
         id="Arrow2SendPath"
         style="fill:#000000;fill-opacity:1;stroke:none"
         transform="matrix(-0.3,0,0,-0.3,0.69,0)" />
    </marker>
  </defs>
  <g
     inkscape:label="Page"
     inkscape:groupmode="layer"
     id="layer1">
    <g
       id="g1"
       transform="matrix(0.27938176,0,0,0.27938176,27.273407,6.2028484)"
       inkscape:label="TV"
       style="display:inline">
      <path
         d="M 141.50915,46.487802 H 69.404041 c -5.430334,0 -9.832514,4.402181 -9.832514,9.832514 v 58.995094 c 0,5.43049 4.40218,9.83251 9.832514,9.83251 h 72.105109 c 5.4305,0 9.83251,-4.40202 9.83251,-9.83251 V 56.320316 c 0,-5.430333 -4.40201,-9.832514 -9.83251,-9.832514 z"
         fill="#b71c1c"
         id="path1"
         style="display:inline;fill:#2faada;fill-opacity:1;stroke-width:3.2775"
         transform="matrix(3.0317467,0,0,3.0317467,-174.89818,-115.39726)"
         inkscape:label="tv-right" />
      <path
         d="m 69.404041,46.487802 c -2.607747,0 -5.10868,1.035921 -6.952636,2.879878 -1.843957,1.843957 -2.879878,4.34489 -2.879878,6.952636 v 58.995094 c 0,2.60758 1.035921,5.10864 2.879878,6.95256 1.843956,1.84393 4.344889,2.87995 6.952636,2.87995 H 105.45659 V 46.487802 Z"
         fill="#e53935"
         id="path5"
         style="fill:#0d6a87;fill-opacity:1;stroke-width:3.2775"
         transform="matrix(3.0317467,0,0,3.0317467,-174.89818,-115.39726)"
         inkscape:label="tv-left" />
      <path
         id="path2"
         style="fill:#ffffff;fill-opacity:1;stroke-width:3.2775"
         d="m 115.28909,102.20514 c -0.8692,0 -1.70324,0.34576 -2.31777,0.9603 -0.61454,0.61453 -0.95969,1.44797 -0.95969,2.31717 h -6.55492 -29.497766 c -0.217315,0 -0.432439,0.0221 -0.642436,0.0641 -0.209997,0.042 -0.414982,0.10388 -0.611931,0.18547 -0.196949,0.0816 -0.385561,0.18258 -0.563733,0.30139 -0.178173,0.1188 -0.345397,0.25574 -0.499063,0.40937 -0.153657,0.15364 -0.290572,0.3209 -0.409377,0.49907 -0.118806,0.17817 -0.219811,0.36738 -0.30139,0.56434 -0.08158,0.19696 -0.144104,0.40193 -0.186081,0.61193 -0.04198,0.21 -0.06345,0.42514 -0.06345,0.64244 0,0.2173 0.02147,0.43182 0.06345,0.64182 0.04198,0.21001 0.104502,0.41498 0.186081,0.61193 0.08158,0.19696 0.182584,0.38618 0.30139,0.56435 0.118805,0.17817 0.25572,0.34543 0.409377,0.49906 0.153666,0.15363 0.32089,0.29057 0.499063,0.40938 0.178172,0.1188 0.366784,0.2198 0.563733,0.30139 0.196949,0.0816 0.401934,0.14348 0.611931,0.18547 0.209997,0.042 0.425121,0.0641 0.642436,0.0641 h 29.497766 6.55492 c 0,0.86919 0.34515,1.70263 0.95969,2.31716 0.61453,0.61453 1.44857,0.9603 2.31777,0.9603 0.86919,0 1.70324,-0.34577 2.31777,-0.9603 0.61454,-0.61453 0.95969,-1.44797 0.95969,-2.31716 h 16.38731 c 0.86919,0 1.70324,-0.34577 2.31777,-0.9603 0.61453,-0.61453 0.9603,-1.44796 0.9603,-2.31716 0,-0.86919 -0.34577,-1.70325 -0.9603,-2.31778 -0.61453,-0.61452 -1.44858,-0.96029 -2.31777,-0.96029 h -16.38731 c 0,-0.8692 -0.34515,-1.70264 -0.95969,-2.31717 -0.61453,-0.61454 -1.44858,-0.9603 -2.31777,-0.9603 z"
         transform="matrix(3.0317467,0,0,3.0317467,-174.89818,-115.39726)"
         inkscape:label="timeline" />
      <path
         id="path4"
         style="display:inline;fill:#ffffff;fill-opacity:1;stroke-width:3.2775"
         d="m 95.487049,63.084875 c -0.55816,0.0234 -1.101499,0.189114 -1.577721,0.481369 -0.47622,0.292288 -0.869376,0.701342 -1.142718,1.188476 -0.273672,0.487169 -0.418111,1.03599 -0.41975,1.594804 v 25.826785 c 0.0043,0.584051 0.164113,1.156513 0.463677,1.657643 0.299563,0.501458 0.728061,0.913413 1.240335,1.193968 0.474582,0.285142 1.019552,0.432405 1.573449,0.42585 0.613549,0.002 1.215507,-0.16858 1.736957,-0.491741 L 120.30351,80.606358 c 0.49687,-0.309396 0.90188,-0.745909 1.17261,-1.264739 0.27104,-0.5185 0.39771,-1.10011 0.36789,-1.684488 -0.0311,-0.577168 -0.21418,-1.136059 -0.53079,-1.619817 -0.31661,-0.483432 -0.75491,-0.874317 -1.27145,-1.133568 L 97.098935,63.432632 c -0.498836,-0.251418 -1.053401,-0.371126 -1.611886,-0.347757 z"
         transform="matrix(3.0317467,0,0,3.0317467,-174.89818,-115.39726)"
         sodipodi:nodetypes="cccccccccccccccc"
         inkscape:label="play" />
    </g>
    <g
       id="g2"
       transform="matrix(0.31562347,0,0,0.31562347,48.574653,100.57581)"
       inkscape:label="Sync"
       style="display:inline">
      <path
         id="primary"
         d="M 166.20046,-21.483358 H 96.409593 l 2.645837,-2.557639 c 3.45884,-3.458209 3.45909,-9.065657 5.6e-4,-12.52418 -3.458518,-3.458523 -9.065966,-3.458272 -12.524175,5.69e-4 l -17.638892,17.638889 c -3.478369,3.449963 -3.478369,9.0736484 0,12.5236109 L 86.531815,11.236781 c 3.449963,3.478369 9.073648,3.478369 12.523615,0 3.47837,-3.4499626 3.47837,-9.0736487 0,-12.5236113 L 96.409593,-3.8444692 H 166.20046 V 45.115722 H 86.858831 c -4.86858,0.0032 -8.81363,3.950859 -8.81363,8.819443 0,4.868584 3.94505,8.816247 8.81363,8.819442 h 79.341629 c 9.74167,0 17.63887,-7.897196 17.63887,-17.638885 V -3.8444692 c 0,-9.7416898 -7.8972,-17.6388898 -17.63887,-17.6388888 z"
         style="fill:#ffffff;fill-opacity:1;stroke-width:8.81944"
         sodipodi:nodetypes="sccsccccccccccscssss"
         inkscape:label="right" />
      <path
         id="primary-5"
         d="m -44.798336,65.098259 h 69.79085 l -2.64584,2.557639 c -3.45882,3.458209 -3.45907,9.065657 -5.6e-4,12.52418 3.45852,3.458523 9.06597,3.458272 12.52418,-5.69e-4 L 52.509185,62.54062 c 3.47837,-3.449963 3.47837,-9.073648 0,-12.523611 L 34.870294,32.37812 c -3.44996,-3.478369 -9.07365,-3.478369 -12.52362,0 -3.47835,3.449963 -3.47835,9.073649 0,12.523611 l 2.64584,2.557639 h -69.79085 V -1.5008213 h 79.34161 c 4.86858,-0.0032 8.81363,-3.950859 8.81363,-8.8194427 0,-4.868584 -3.94505,-8.816247 -8.81363,-8.819442 h -79.34161 c -9.74167,0 -17.63887,7.897196 -17.63887,17.6388847 V 47.45937 c 0,9.74169 7.8972,17.63889 17.63887,17.638889 z"
         style="display:inline;fill:#2faada;fill-opacity:1;stroke-width:8.81944"
         sodipodi:nodetypes="sccsccccccccccscssss"
         inkscape:label="left" />
    </g>
  </g>
</svg>
