<?xml version="1.0" encoding="UTF-8" standalone="no"?>
<!-- Created with Inkscape (http://www.inkscape.org/) -->

<svg
   width="512"
   height="512"
   viewBox="0 0 135.46666 135.46667"
   version="1.1"
   id="svg1"
   inkscape:version="1.3.2 (091e20ef0f, 2023-11-25)"
   sodipodi:docname="icon.svg"
   inkscape:export-filename="icon.png"
   inkscape:export-xdpi="96"
   inkscape:export-ydpi="96"
   xmlns:inkscape="http://www.inkscape.org/namespaces/inkscape"
   xmlns:sodipodi="http://sodipodi.sourceforge.net/DTD/sodipodi-0.dtd"
   xmlns="http://www.w3.org/2000/svg"
   xmlns:svg="http://www.w3.org/2000/svg">
  <sodipodi:namedview
     id="namedview1"
     pagecolor="#000000"
     bordercolor="#000000"
     borderopacity="0.25"
     inkscape:showpageshadow="2"
     inkscape:pageopacity="0.0"
     inkscape:pagecheckerboard="0"
     inkscape:deskcolor="#d1d1d1"
     inkscape:document-units="mm"
     inkscape:zoom="0.5606361"
     inkscape:cx="32.106388"
     inkscape:cy="194.42201"
     inkscape:window-width="1920"
     inkscape:window-height="1129"
     inkscape:window-x="0"
     inkscape:window-y="0"
     inkscape:window-maximized="1"
     inkscape:current-layer="layer1"
     showguides="false"
     showgrid="false"
     inkscape:export-bgcolor="#000000ff">
    <inkscape:grid
       id="grid8"
       units="px"
       originx="0"
       originy="0"
       spacingx="3.175"
       spacingy="3.175"
       empcolor="#0099e5"
       empopacity="0.30196078"
       color="#0099e5"
       opacity="0.14901961"
       empspacing="5"
       dotted="false"
       gridanglex="30"
       gridanglez="30"
       visible="false"
       snapvisiblegridlinesonly="true" />
  </sodipodi:namedview>
  <defs
     id="defs1">
    <marker
       id="Arrow2Sstart"
       inkscape:isstock="true"
       inkscape:stockid="Arrow2Sstart"
       orient="auto"
       refX="0"
       refY="0"
       style="overflow:visible">
      <path
         d="M 8.72,4.03 -2.21,0.02 8.72,-4 c -1.75,2.37 -1.74,5.62 0,8.03 z"
         id="Arrow2SstartPath"
         style="fill:#000000;fill-opacity:1;stroke:none"
         transform="matrix(0.3,0,0,0.3,-0.69,0)" />
    </marker>
    <marker
       id="Arrow2Send"
       inkscape:isstock="true"
       inkscape:stockid="Arrow2Send"
       orient="auto"
       refX="0"
       refY="0"
       style="overflow:visible">
      <path
         d="M 8.72,4.03 -2.21,0.02 8.72,-4 c -1.75,2.37 -1.74,5.62 0,8.03 z"
         id="Arrow2SendPath"
         style="fill:#000000;fill-opacity:1;stroke:none"
         transform="matrix(-0.3,0,0,-0.3,0.69,0)" />
    </marker>
  </defs>
  <g
     inkscape:label="Page"
     inkscape:groupmode="layer"
     id="layer1">
    <g
       id="Page-1-6-5"
       stroke="none"
       stroke-width="1"
       fill="none"
       fill-rule="evenodd"
       transform="matrix(-0.55708168,0,0,-0.55708168,23.159965,265.11367)"
       style="display:inline"
       inkscape:label="Arrow Bottom">
      <path
         d="m 292.42355,-309.34935 90.50967,90.50966 -90.50967,90.50967 -30.16989,-30.16989 38.98656,-39.00645 H -25.489017 l -0.0121,106.666006 h -42.666 V -240.17332 H 301.24122 l -38.98756,-39.00611 z"
         id="Rectangle-5"
         style="display:inline;fill:#ffffff;fill-opacity:1"
         sodipodi:nodetypes="cccccccccccc"
         transform="matrix(0.34089438,0,0,0.34089438,-132.62347,361.14296)"
         inkscape:label="path" />
    </g>
    <g
       id="Page-1-6"
       stroke="none"
       stroke-width="1"
       fill="none"
       fill-rule="evenodd"
       transform="matrix(0.55708169,0,0,0.55708169,112.3067,-129.64701)"
       style="display:inline"
       inkscape:label="Arrow Top">
      <path
         d="m 306.35589,-309.34935 90.50967,90.50966 -90.50967,90.50967 -30.16989,-30.16989 38.98656,-39.00645 H -11.556675 l -0.0121,106.666006 h -42.666 V -240.17332 H 315.17356 L 276.186,-279.17943 Z"
         id="Rectangle"
         style="display:inline;fill:#ffffff;fill-opacity:1"
         sodipodi:nodetypes="cccccccccccc"
         transform="matrix(0.34089438,0,0,0.34089438,-137.37292,361.14296)"
         inkscape:label="path" />
    </g>
    <g
       id="g8"
       stroke="none"
       stroke-width="1"
       fill="none"
       fill-rule="evenodd"
       transform="matrix(0.26613914,0,0,0.21621903,3.9850212,-37.060499)"
       style="display:inline"
       inkscape:label="Books">
      <path
         d="m 154.39913,413.20807 h 30.50233 v 132.17678 h -30.50233 z m 40.66978,10.16744 h 30.50233 v 122.00934 h -30.50233 z m 76.70088,7.44394 30.03894,-5.29667 22.85217,119.86207 -33.01311,0.17627 z m -36.03111,-7.44394 h 30.50234 v 122.00934 h -30.50234 z"
         id="path3"
         style="fill:#ffffff;fill-opacity:1;stroke-width:0.476599"
         sodipodi:nodetypes="cccccccccccccccccccc"
         inkscape:label="path" />
    </g>
  </g>
</svg>
