<?xml version="1.0" encoding="utf-8"?><!-- Uploaded to: SVG Repo, www.svgrepo.com, Generator: SVG Repo Mixer Tools -->
<svg fill="#000000" width="800px" height="800px" viewBox="0 0 24 24" id="refresh" data-name="Flat Color" xmlns="http://www.w3.org/2000/svg" class="icon flat-color"><path id="secondary" d="M14.71,17.29l-2-2a1,1,0,0,0-1.42,1.42l.3.29H4V7H6A1,1,0,0,0,6,5H4A2,2,0,0,0,2,7V17a2,2,0,0,0,2,2h7.59l-.3.29a1,1,0,0,0,0,1.42,1,1,0,0,0,1.42,0l2-2A1,1,0,0,0,14.71,17.29Z" style="fill: rgb(44, 169, 188);"></path><path id="primary" d="M20,5H12.41l.3-.29a1,1,0,1,0-1.42-1.42l-2,2a1,1,0,0,0,0,1.42l2,2a1,1,0,0,0,1.42,0,1,1,0,0,0,0-1.42L12.41,7H20V17H18a1,1,0,0,0,0,2h2a2,2,0,0,0,2-2V7A2,2,0,0,0,20,5Z" style="fill: rgb(0, 0, 0);"></path></svg>